<?xml version="1.0" encoding="UTF-8" standalone="no" ?>
<!DOCTYPE svg PUBLIC "-//W3C//DTD SVG 1.1//EN" "http://www.w3.org/Graphics/SVG/1.1/DTD/svg11.dtd">
<svg xmlns="http://www.w3.org/2000/svg" xmlns:xlink="http://www.w3.org/1999/xlink" version="1.1" width="1280" height="1024" viewBox="0 0 1280 1024" xml:space="preserve">
<desc>Created with Fabric.js 5.3.0</desc>
<defs>
</defs>
<g transform="matrix(1 0 0 1 640 512)" id="background-logo"  >
<rect style="stroke: none; stroke-width: 0; stroke-dasharray: none; stroke-linecap: butt; stroke-dashoffset: 0; stroke-linejoin: miter; stroke-miterlimit: 4; fill: rgb(53,35,70); fill-rule: nonzero; opacity: 1;"  paint-order="stroke"  x="-640" y="-512" rx="0" ry="0" width="1280" height="1024" />
</g>
<g transform="matrix(1.9211538461538462 0 0 1.9211538461538462 640.0000000000002 512)" id="logo-logo"  >
<g style=""  paint-order="stroke"   >
		<g transform="matrix(1.9926346852993935 0 0 1.9926346852993937 -5.684342e-14 0)"  >
<g style=""  paint-order="stroke"   >
		<g transform="matrix(1 0 0 1 0 0)"  >
<path style="stroke: none; stroke-width: 1; stroke-dasharray: none; stroke-linecap: butt; stroke-dashoffset: 0; stroke-linejoin: miter; stroke-miterlimit: 4; fill: rgb(248,199,112); fill-rule: nonzero; opacity: 1;"  paint-order="stroke"  transform=" translate(-100, -100)" d="M 100 200 C 44.771525016920656 200 0 155.22847498307934 0 100 C 0 44.77152501692066 44.771525016920656 0 100 0 C 155.22847498307934 0 200 44.771525016920634 200 99.99999999999997 C 199.93937629545218 155.20334432271795 155.20334432271795 199.93937629545218 99.99999999999999 200 Z M 100 3 C 46.42837926641303 3 3 46.42837926641303 3 100 C 3 153.57162073358697 46.42837926641303 197 100 197 C 153.57162073358697 197 197 153.57162073358697 197 100 C 196.91740169874194 46.462629927545215 153.53737007245473 3.082598301258031 99.99999999999996 3 Z" stroke-linecap="round" />
</g>
</g>
</g>
		<g transform="matrix(0.7815696748633045 0 0 0.7815696748633045 -2.0835055136053597 -4.496357094570868)"  >
<g style=""  paint-order="stroke"   >
		<g transform="matrix(1 0 0 1 0 0)"  >
<path style="stroke: none; stroke-width: 1; stroke-dasharray: none; stroke-linecap: butt; stroke-dashoffset: 0; stroke-linejoin: miter; stroke-miterlimit: 4; fill: rgb(243,231,207); fill-rule: nonzero; opacity: 1;"  paint-order="stroke"  transform=" translate(-124.99999837345143, -124.68452079727474)" d="M 236.18703 67.19399 C 235.60356 65.96185 234.96212 64.75862 234.25602999999998 63.59113 C 234.24156 63.56259 234.22715 63.54075 234.21285999999998 63.51925 C 233.53547999999998 62.3951 232.80048999999997 61.30708 232.00066999999999 60.25517 C 226.38771 52.83347 218.13026 47.588 211.27794 41.32638 C 210.21141 38.50184 208.73441 35.807140000000004 207.0266 33.321200000000005 C 201.76668 25.676290000000005 193.84781 19.436170000000004 184.66813 18.081770000000006 C 182.3048 17.728730000000006 179.52342 17.865430000000007 178.03919 19.739000000000004 C 176.13691 22.116770000000002 177.49871 25.560900000000004 178.42818 28.457490000000004 C 179.17759999999998 30.799150000000004 179.59548 33.249140000000004 179.66753 35.70619000000001 C 169.47908 35.590970000000006 159.52123 39.28721000000001 151.31417 45.224500000000006 L 151.14838 45.224500000000006 C 146.70272 45.13096000000001 141.96868 42.421800000000005 141.09681 38.05525000000001 C 140.59966 42.42885000000001 142.50196 46.91063000000001 145.7516 49.84334000000001 C 141.62288 53.770350000000015 138.17152 58.288060000000016 135.67114 63.13010000000001 C 132.07567 62.75538000000001 128.42965 62.84206000000001 124.85587000000001 63.396650000000015 C 122.80948000000001 63.71375000000002 120.61175000000001 64.29723000000001 119.38684 65.96909000000001 C 118.0682 67.74877000000001 118.28454 70.19154 118.57257000000001 72.38186 C 119.34367000000002 78.24709 120.31648000000001 84.24939 123.27050000000001 89.37947 C 124.96386000000001 92.31217 127.44979000000001 94.91316 130.38249000000002 96.57778 C 131.00191 98.29984 131.52812000000003 100.05802 131.77301000000003 101.86658 C 132.16939000000002 104.7704 131.78744000000003 107.88298 130.13022000000004 110.29685 C 128.46576000000005 112.71074 125.34579000000004 114.22387 122.52125000000004 113.46721000000001 C 125.76367000000003 116.73129 130.41121000000004 118.41742 135.01541000000003 118.48225000000001 C 136.26922000000002 118.49669 137.51579000000004 118.38852000000001 138.74776000000003 118.19403000000001 C 138.19300000000004 119.26040000000002 137.76068000000004 123.77475000000001 130.64304000000004 122.01517000000001 C 131.76595000000003 126.50716000000001 138.39673000000005 135.01301 146.13588000000004 137.68322 C 151.75061000000005 139.62057000000001 158.37486000000004 139.18296 164.48499000000004 137.81341 C 140.89931000000004 147.69499000000002 128.45940000000004 130.98858 126.82067000000004 124.6845 C 123.94363000000004 126.10303 122.59048000000004 130.05241 122.55435000000003 132.37962 C 121.82659000000002 131.7602 119.85525000000003 130.24161999999998 119.09137000000003 129.70834 C 111.30958000000003 124.30433 101.72627000000003 119.24595 92.34485000000002 117.94914999999999 C 76.48811000000002 115.75652999999998 60.587160000000026 120.01491999999999 49.157580000000024 127.26767999999998 C 47.183590000000024 128.52007999999998 45.427440000000026 130.09892 44.057630000000024 131.99345 C 44.05111000000002 132.00225 44.044600000000024 132.01140999999998 44.038070000000026 132.0204 C 38.85020000000003 139.30275 35.469680000000025 147.70872 34.231720000000024 156.62523 C 29.271450000000023 142.82381999999998 39.35852000000003 128.06116999999998 46.33797000000003 123.87921999999999 C 38.84373000000003 125.49878 37.021880000000024 128.61272 36.09507000000003 129.94913 C 35.59774000000003 127.34797999999999 36.07024000000003 125.40679 36.75484000000003 122.8488 C 38.03014000000003 118.1292 40.41513000000003 113.79858 42.24536000000003 109.26661 C 44.075590000000034 104.73428 45.372560000000036 99.74796 44.30620000000003 94.97092 C 44.39974000000003 99.89224 41.22234000000003 104.25879 37.741920000000036 107.73903000000001 C 34.26890000000004 111.21926000000002 30.270010000000035 114.33907000000002 27.906690000000037 118.65524000000002 C 27.294150000000037 119.77921000000002 26.818670000000036 120.96818000000002 26.472660000000037 122.19309000000003 C 26.350220000000036 119.49822000000003 26.537490000000037 116.42158000000002 27.135590000000036 112.94838000000003 C 28.627220000000037 104.24433000000003 33.00805000000004 95.91483000000002 39.63699000000004 90.07831000000003 C 46.26611000000004 84.24936000000002 55.92128000000004 81.42465000000003 64.25080000000004 84.35736000000003 C 61.88747000000004 82.00108000000003 58.63061000000004 80.68967000000004 55.33041000000004 80.23585000000003 C 52.57087000000004 79.84669000000002 49.767830000000046 80.01969000000003 47.001080000000044 80.40868000000003 C 47.49823000000004 80.04119000000003 48.00261000000005 79.68814000000003 48.54293000000004 79.35676000000004 C 52.088000000000044 77.14459000000004 56.05113000000004 75.58109000000003 60.16541000000004 74.83888000000003 C 67.31317000000004 73.54913000000003 74.64820000000003 74.62272000000003 81.91135000000004 74.66605000000003 C 89.17450000000004 74.71661000000003 96.94906000000005 73.49857000000003 102.28122000000005 68.56298000000002 C 99.16847000000004 71.25063000000003 94.49204000000005 71.23618000000002 90.56519000000004 70.01849000000003 C 87.82698000000005 69.16812000000003 85.28343000000004 67.83522000000004 82.67506000000004 66.63902000000003 C 88.74218000000005 65.61600000000003 94.74430000000004 64.32609000000004 100.58788000000004 62.41675000000003 C 110.87728000000004 59.05172000000003 120.73419000000004 53.63325000000003 127.79562000000004 45.419130000000024 C 128.73231000000004 44.33110000000002 129.60420000000005 43.18529000000002 130.42567000000005 41.99649000000002 C 131.88841000000005 40.48319000000002 133.19964000000004 38.82613000000002 134.33102000000005 37.046460000000025 C 139.46127000000004 28.990540000000024 140.92384000000004 18.859880000000025 139.11526000000006 9.478460000000023 C 139.19471000000007 12.980190000000023 138.52456000000006 16.474890000000023 137.22038000000006 19.724520000000023 C 137.15555000000006 18.254560000000023 136.98977000000005 16.784590000000023 136.70155000000005 15.329250000000023 C 135.71429000000006 10.314220000000024 133.70947000000007 6.077140000000023 129.39358000000004 3.324660000000023 C 124.24932000000004 0.04402000000002282 113.23339000000004 -0.4147299999999774 109.85409000000004 0.27709000000002293 C 47.93446 7.75203 -0.03856 60.49917 0.00002 124.44617 C 0.04178 193.64038 55.80681 249.36939999999998 125.00094 249.36903999999998 C 194.03583 249.36853 250 193.40414 250 124.36919 C 250 103.76871 245.01367 84.32849 236.18703 67.19399 z M 139.01608 235.98837 C 134.18795999999998 240.64543 127.49242999999998 242.66365 121.05903999999998 243.68736 C 112.48218999999997 244.89924000000002 103.76034999999999 243.66711 95.50447999999999 241.35594 C 83.29552999999999 237.77035 71.02456999999998 233.26181 60.938119999999984 225.31334 C 57.623829999999984 222.64597 54.651659999999985 219.55962000000002 52.21627999999998 216.07462 C 54.85953999999998 219.38627000000002 57.969999999999985 222.27739 61.34542999999998 224.782 C 68.18206999999998 229.72447 75.99134999999998 233.06694000000002 83.93344999999998 235.80022000000002 C 95.70056999999998 239.78379 108.23790999999997 243.24042000000003 120.71181999999999 241.32105 C 127.12141999999999 240.29838 138.70021 236.89689 139.62386999999998 229.45405000000002 C 139.78947 227.71948000000003 139.08145 225.93470000000002 137.89124999999999 224.49716000000004 C 133.85977 219.71960000000004 126.88360999999999 219.87744000000004 121.12634999999999 218.94938000000005 C 116.92979999999999 218.40008000000006 112.71034999999999 217.84638000000004 108.50903999999998 217.05854000000005 C 100.09990999999998 215.59579000000005 91.74360999999999 212.59879000000006 84.69873999999999 207.74300000000005 C 81.53718999999998 205.71618000000007 78.44345999999999 203.55420000000007 75.16546999999998 201.79145000000005 C 72.40611999999999 200.83573000000004 69.67458999999998 199.79475000000005 66.99292999999999 198.64893000000006 C 61.29135999999998 197.45166000000006 54.70769999999999 198.27950000000007 50.70827999999999 202.85218000000006 C 54.04652999999999 198.65122000000005 59.17448999999999 197.21491000000006 64.35125999999998 197.47721000000007 C 59.124459999999985 195.06209000000007 54.13355999999998 192.18330000000006 49.588549999999984 188.60160000000008 C 46.27442999999998 185.9343800000001 43.302089999999986 182.8478800000001 40.86670999999998 179.36304000000007 C 43.50996999999998 182.67467000000008 46.62025999999998 185.56563000000006 49.99585999999998 188.07042000000007 C 56.83249999999998 193.01288000000008 64.64177999999998 196.35519000000008 72.58387999999998 199.08864000000005 C 84.35117999999999 203.07186000000004 96.88833999999997 206.52886000000007 109.36224999999999 204.60948000000005 C 115.77184999999999 203.58645000000004 127.35046999999999 200.18548000000004 128.27430999999999 192.74229000000005 C 128.43974999999998 191.00772000000006 127.73187999999999 189.22311000000005 126.54166999999998 187.78540000000007 C 122.51001999999998 183.00783000000007 115.53402999999999 183.16569000000007 109.77677999999997 182.23762000000008 C 105.58005999999997 181.68833000000006 101.36058999999997 181.13479000000007 97.15946999999997 180.34696000000008 C 88.75015999999997 178.88422000000008 80.39403999999998 175.88686000000007 73.34916999999997 171.03142000000008 C 68.03587999999998 167.62500000000009 62.91882999999997 163.82799000000009 56.78581999999997 162.2068700000001 C 50.84340999999997 160.6447700000001 43.628369999999975 161.2590700000001 39.35852999999997 166.14040000000008 C 44.97572999999997 159.0721000000001 55.83317999999997 157.9898900000001 63.29134999999997 161.4974400000001 C 67.20452999999998 163.2817000000001 70.78799999999997 165.6236900000001 74.39632999999998 167.7944700000001 C 85.09250999999998 174.85396000000011 97.67325999999997 176.6685100000001 110.24381999999997 178.0306600000001 C 114.54228999999997 178.6014600000001 118.84876999999997 178.8068700000001 122.99950999999997 180.3966400000001 C 130.35971999999998 183.13396000000012 133.82771999999997 193.1895800000001 127.66634999999997 199.2766400000001 C 122.83839999999996 203.9337000000001 116.14287999999996 205.9522500000001 109.70948999999996 206.9756300000001 C 101.13245999999995 208.18786000000011 92.41061999999997 206.9555500000001 84.15474999999996 204.64419000000012 C 83.24571999999996 204.37731000000014 82.33666999999997 204.10302000000013 81.42780999999997 203.8248400000001 C 82.81849999999997 204.66342000000012 97.59081999999997 214.2245300000001 121.34041999999997 215.80653000000012 C 125.66706999999997 216.09474000000012 130.16407999999996 216.73954000000012 134.31483999999998 218.32895000000013 C 141.67504999999997 221.06647000000012 145.17749999999998 229.90088000000014 139.01611999999997 235.98843000000014 L 139.01608 235.98837 z M 133.87421 231.19286 C 136.5423 232.78983 132.83181000000002 234.40496 130.92424 234.01899 C 130.33089 233.89903 129.7328 233.72601 129.2529 233.38584 C 128.77284 233.04549 128.42824000000002 232.50904 128.49027 231.97014000000001 C 128.71048000000002 230.05394 132.59714 230.4285 133.8742 231.19287000000003 L 133.87421 231.19286 z M 128.79381 226.02684 C 129.06548 225.48704999999998 129.73703 225.20499999999998 130.38816 225.09224999999998 C 131.60673 224.88138999999998 134.32769 225.20569999999998 134.73675 226.57683999999998 C 135.2501 228.29729999999998 132.41834 228.72205999999997 131.12121 228.51313 C 130.43731 228.40302 129.74672999999999 228.17998 129.25309 227.73532999999998 C 128.75946 227.29086 128.51141 226.58795 128.79381 226.02684 z M 127.79157 237.93242 C 127.33124 238.16657 126.79285999999999 238.24953000000002 126.26275999999999 238.2992 C 125.53111999999999 238.36791000000002 124.75843999999998 238.37424000000001 124.08793999999999 238.08640000000003 C 123.41725999999998 237.79854000000003 122.88786999999999 237.14106000000004 123.01964 236.49331000000004 C 123.1567 235.82086000000004 123.92146 235.40615000000003 124.66489999999999 235.25695000000005 C 126.20021999999999 234.94901000000004 130.80266999999998 236.40064000000004 127.79157 237.93246000000005 L 127.79157 237.93242 z M 126.21678 224.7829 C 125.55438 224.92790000000002 124.85305 225.0054 124.18501 224.85565000000003 C 123.5168 224.70588000000004 122.8861 224.29400000000004 122.65867 223.71017000000003 C 122.3828 223.00180000000003 122.77759 222.18736000000004 123.45461 221.76789000000002 C 124.4764 221.13456000000002 127.19946 221.2075 128.08331 222.17325000000002 C 129.23176 223.42830000000004 127.45032 224.51261000000002 126.21678000000001 224.78287000000003 L 126.21678000000001 224.7829 z M 124.94748 227.54825 C 125.5063 227.85056 126.09224 228.17754 126.40089 228.69283 C 127.28701000000001 230.17211999999998 124.86962 233.51371999999998 123.7911 234.58449 C 122.95024 235.41901 121.71335 236.01305 120.45267 235.86595 C 119.19023 235.71867 118.12916 234.85405 117.51274 233.84704 C 116.89631999999999 232.8397 116.65020999999999 231.69495999999998 116.41256 230.57202999999998 C 116.17878 229.46656 115.94481999999999 228.32673 116.19798 227.23396 C 116.45114 226.14117 117.31613 225.09472 118.54385 224.90587 C 119.66783000000001 224.73287 120.77135000000001 225.2894 121.76073000000001 225.82459 C 122.82285 226.39909 123.88516 226.97357 124.94748 227.54825 L 124.94748 227.54825 z M 122.35267 194.06569 C 125.02077 195.66284 121.31027 197.27799 119.40270000000001 196.89197 C 118.80918000000001 196.77199 118.21126000000001 196.59899 117.73136000000001 196.25861999999998 C 117.25130000000001 195.91843999999998 116.90671 195.38201999999998 116.96873000000001 194.84309 C 117.18894 192.92689 121.07561000000001 193.30145 122.35266000000001 194.06564999999998 L 122.35267 194.06569 z M 117.27228 188.89966 C 117.54393999999999 188.35988 118.21548999999999 188.07802 118.86662 187.96527 C 120.08518 187.75421 122.80615 188.07872 123.21521 189.44986 C 123.72856 191.17033 120.8968 191.59508 119.59966 191.38614 C 118.91578 191.27603000000002 118.22519 191.05283 117.73156 190.60835 C 117.23792 190.16386 116.98987 189.46095 117.27228 188.89966 z M 116.27003 200.80542 C 115.8097 201.03957 115.27132 201.12253 114.74123 201.1722 C 114.00959 201.24074000000002 113.2369 201.24707 112.5664 200.95922000000002 C 111.89572 200.67153000000002 111.36633 200.01408 111.49811 199.36628000000002 C 111.63516 198.69366000000002 112.39992 198.27895 113.14336 198.12992000000003 C 114.67869 197.82198 119.28113 199.27362 116.27003 200.80542 z M 114.69525 187.6559 C 114.03284000000001 187.80087 113.33151000000001 187.87822 112.66348 187.72849 C 111.99527 187.57873999999998 111.36457 187.16685999999999 111.13714 186.58303 C 110.86127 185.87484 111.25606 185.06040000000002 111.93308 184.64094 C 112.9547 184.00761 115.67793 184.08036 116.56178 185.04612 C 117.71023 186.30133 115.92879 187.38567 114.69525 187.6559 L 114.69525 187.6559 z M 113.42594 190.42105 C 113.98476 190.72336 114.5707 191.05051 114.87935 191.56583 C 115.76548 193.04512 113.34808 196.38672 112.26956 197.45732 C 111.42869999999999 198.29201 110.19181 198.88605 108.93113 198.73897000000002 C 107.66869 198.59151000000003 106.60762 197.72705000000002 105.99119999999999 196.71988000000002 C 105.37477999999999 195.71271000000002 105.12866999999999 194.56796000000003 104.89101 193.44505 C 104.65723 192.33958 104.42326999999999 191.19975000000002 104.67643 190.10679000000002 C 104.92958999999999 189.01418 105.79458 187.96774000000002 107.0223 187.77888000000002 C 108.14628 187.60588 109.24980000000001 188.16241000000002 110.23918 188.69743000000003 C 111.30131 189.27209000000002 112.36362 189.84658000000002 113.42592 190.42108000000002 L 113.42594 190.42105 z M 239.14368 104.99556 L 240.84444 101.98286999999999 L 241.14833 105.39634999999998 C 241.43973 108.55349999999999 240.18062999999998 111.80753999999999 237.85043 113.93091999999999 C 237.09323999999998 114.61780999999999 236.23353 115.18243999999999 235.30424 115.53916999999998 C 236.00521 114.83501999999999 236.61476 114.09580999999999 237.12355 113.30708999999999 C 238.01462 111.92996 238.63597 110.37684999999999 238.91872999999998 108.77123999999999 C 235.92365999999998 111.62414 231.35962999999998 112.8561 227.49692 111.26615999999999 C 232.10834 111.29838999999998 236.85630999999998 109.01382999999998 239.14371 104.99554999999998 L 239.14368 104.99556 z M 242.34435 120.53325 C 238.83082 123.84984 232.05619 122.4831 230.08606 118.07708 C 234.05798 119.92265 237.96898 120.69479 242.34435 120.53325 z M 180.56055 66.13416 C 180.45644000000001 67.021 180.50241 67.94008 180.73690000000002 68.85687 C 181.76011000000003 72.85929 185.83422000000002 75.27423 189.83646000000002 74.25086 C 193.83870000000002 73.22766 196.25362 69.15373 195.23044000000002 65.15149 C 194.20725000000002 61.14908 190.13312000000002 58.73414 186.13089000000002 59.757329999999996 C 184.49568000000002 60.17556 183.13213000000002 61.1082 182.15297 62.33188 C 183.34247000000002 60.69349 185.08797 59.444269999999996 187.20271000000002 58.90361 C 192.01762000000002 57.67253 196.91903000000002 60.57793 198.14993 65.39284 C 199.38101 70.20774 196.47561000000002 75.10916 191.66070000000002 76.34024000000001 C 186.84561000000002 77.57114000000001 181.94438000000002 74.66592000000001 180.71331 69.85083 C 180.39233000000002 68.59509 180.35850000000002 67.33495 180.56057 66.13416000000001 L 180.56055 66.13416 z M 177.50752 86.37137 C 178.75746 85.24706 180.59085 83.76123 181.2677 84.05437 C 182.25460999999999 84.48123000000001 181.66197 87.89877 180.67593 89.66346 C 183.03099 91.15826 185.40610999999998 91.53474 188.02946 90.01174 C 188.79174 89.67755 189.46472 89.18585 190.25238 88.8328 C 188.58104999999998 92.83962000000001 184.24498 93.95108 181.25063 91.73768000000001 C 182.29479 95.31341 179.75054 98.99766000000001 175.41532 99.18193000000001 C 176.01801 98.56534 176.71282000000002 98.10325 177.28977 97.50321000000001 C 179.62508 95.56851 180.09176 93.2073 179.50266 90.48195000000001 C 177.50593999999998 90.79765000000002 174.09403999999998 90.17348000000001 174.03413999999998 89.09989000000002 C 173.99308999999997 88.36332000000002 176.02047 87.15603000000002 177.50750999999997 86.37136000000001 L 177.50752 86.37137 z M 162.09299 94.44772 C 158.20048999999997 97.53757 152.53997999999999 96.88698000000001 149.45012 92.9945 C 146.36011 89.10201 147.01069999999999 83.44149 150.90318 80.35164 C 152.61273 78.99442 154.66335999999998 78.36003000000001 156.68739 78.40373000000001 C 155.12069 78.44336000000001 153.55348999999998 78.96518 152.23149999999998 80.01445000000001 C 148.99596999999997 82.58302 148.45512 87.28800000000001 151.02351 90.52336000000001 C 153.59207999999998 93.75889000000001 158.29704999999998 94.29974000000001 161.5326 91.73135 C 164.76797 89.16298 165.30881 84.45781000000001 162.74042 81.22226 C 162.15201 80.48112 161.44786 79.88865000000001 160.67852 79.43519 C 161.75721 80.00052000000001 162.74024 80.78959 163.54604 81.80468 C 166.63606 85.69715 165.98547 91.35767 162.09299 94.44772 L 162.09299 94.44772 z M 153.10353 157.20749 C 152.33658 154.05388000000002 152.13301 146.81258 158.51301 143.79001 C 159.55383 140.86894 161.8605 139.03941 164.54534 137.80023 C 167.3631 136.48654 172.04616000000001 135.755 175.42464 137.22908 C 177.37538 138.12013000000002 179.12792000000002 139.44 180.48319 141.10605 C 185.67177 142.40231 188.96633 147.50261 189.51192 152.55519 C 190.03919 157.62712000000002 188.33826 162.4933 186.25681 166.98283 C 187.56823 162.39184 188.78838 157.50822 187.92972 152.77998 C 187.12691 148.34982 183.85173 143.76587999999998 179.20401 143.23243 C 176.81866000000002 140.14997 172.85641 138.16225 168.94756 138.54841 C 165.11164000000002 138.87097 161.50878 141.66450999999998 160.36808000000002 145.33906 C 156.36866000000003 147.23501 154.96476 152.38976 155.65606000000002 156.57661 C 156.40426000000002 161.05909 159.00153000000003 165.98111 161.34654000000003 169.84680999999998 C 158.33685 166.2688 154.25331 161.88341 153.10353 157.20749 L 153.10353 157.20749 z M 174.77794 145.73688 C 174.70395 146.37638 174.56812 147.02591 174.22124 147.568 C 173.87419 148.1099 173.27997 148.52900000000002 172.63642 148.51878000000002 C 170.34814999999998 148.48196000000002 170.34568 144.33668000000003 171.1025 142.90899000000002 C 172.68346 139.92607 175.01541 143.68167 174.77794 145.73688 z M 164.7262 153.79631 C 164.62578 154.51756 164.21141 155.22647 163.54796000000002 155.52649 C 162.74304 155.89047 161.73589 155.55662999999998 161.16297000000003 154.88416999999998 C 160.29815000000002 153.86926 160.07265000000004 150.98427999999998 161.11223000000004 149.95159999999998 C 162.46311000000003 148.60935999999998 163.94768000000005 150.38073999999997 164.40784000000005 151.65675 C 164.65500000000006 152.34187 164.82660000000004 153.0751 164.72618000000006 153.79631999999998 L 164.7262 153.79631 z M 164.29616 147.21706 C 163.90752999999998 145.95111 163.97941999999998 143.04253 165.55208 142.46997 C 167.52537999999998 141.75136999999998 168.35091 144.7001 168.2526 146.09238 C 168.20063 146.82612999999998 168.01618 147.57890999999998 167.54757 148.146 C 167.07914 148.71309 166.27721 149.04710999999998 165.58222 148.80611 C 164.91347000000002 148.57426999999998 164.50371 147.89354 164.29618 147.21704 L 164.29616 147.21706 z M 176.10892 159.9267 C 174.98989 160.68106 173.66596 161.0584 172.36689 161.42432000000002 C 171.08788 161.7846 169.76838 162.14856000000003 168.44886000000002 161.99282000000002 C 167.12916 161.83709000000002 165.79432000000003 161.03022 165.43089000000003 159.75230000000002 C 165.09811000000002 158.58216000000002 165.62909000000005 157.35904000000002 166.14792000000003 156.25883000000002 C 166.70496000000003 155.07762000000002 167.26201000000003 153.89640000000003 167.81906000000004 152.71499000000003 C 168.11220000000003 152.09347000000002 168.43143000000003 151.44093000000004 169.00467000000003 151.06199000000004 C 170.65047000000004 149.97413000000003 174.87378000000004 152.18665000000004 176.26166000000003 153.21673000000004 C 177.34352000000004 154.01989000000003 178.18668000000002 155.26612000000003 178.15709000000004 156.61329000000003 C 178.12747 157.96257 177.22795 159.17215 176.10892 159.9267 z M 180.36378 152.5448 C 180.10039999999998 153.28279 179.38460999999998 153.90961000000001 178.60437 153.83649 C 177.79433999999998 153.76075 177.21721 152.99475 176.95595 152.22454 C 176.41652 150.63372999999999 177.60462 145.62167 179.7583 148.64686999999998 C 180.08755 149.10931999999997 180.24698999999998 149.66970999999998 180.36643999999998 150.22465999999997 C 180.53097999999997 150.99081999999999 180.62699999999998 151.80665999999997 180.36378 152.54481999999996 L 180.36378 152.5448 z M 211.90916 190.17989 C 211.39917000000003 192.42606 211.68263000000002 194.86055 211.25857000000002 197.42189 C 209.73222 206.15975999999998 197.81132000000002 206.81158 191.59057 202.71667 C 187.06300000000002 199.98497 183.57835 194.76363999999998 182.83209000000002 189.67054 C 181.33659000000003 179.92480999999998 186.89898000000002 165.79487999999998 192.93529 158.283 C 198.35993000000002 151.26313 208.93473 149.19949 217.40833 149.54566 C 210.30779 150.03612 202.86881 151.9222 197.63884000000002 156.86448 C 191.0379 163.56898999999999 184.60469 180.07983 186.17102000000003 189.42198 C 186.54626000000002 192.09308 187.48703000000003 194.72735 189.00648000000004 196.93617 C 188.73095000000004 195.15931 188.71806000000004 191.07942 190.78567000000004 188.86412 C 190.39184000000003 192.45784 190.61650000000003 198.29268000000002 192.31724000000003 200.32251000000002 C 192.49694000000002 200.44937000000002 192.67733000000004 200.57567000000003 192.86495000000002 200.69353 C 195.07694000000004 202.12966 197.75756 202.93845000000002 200.42917000000003 202.97933 C 198.72621000000004 201.86011 197.68143000000003 197.54378 200.11928000000003 193.99164000000002 C 199.91034000000002 197.33483 200.67652000000004 200.46907000000002 201.58924000000002 202.95131 C 203.02186 202.85072 204.43192000000002 202.52145000000002 205.74404 201.93427 C 207.80366 201.01624 209.18024000000003 199.33085 209.63512 197.09771 C 210.15624 194.88131 210.00067 192.36033 210.70958 189.87331 C 211.44087 187.39249 213.03062 185.26505 215.02627999999999 183.769 C 216.99903999999998 182.27596 219.45255999999998 181.38912 221.92176999999998 181.43616 C 217.06367999999998 181.909 212.85358 185.66565 211.90913999999998 190.17986 L 211.90916 190.17989 z M 238.70819 133.99936 C 234.14609000000002 136.73882 228.40556 137.55202 223.30986000000001 135.98023 C 223.86636000000001 138.50457 225.16264 140.84429 226.88452 142.78426000000002 C 223.31656 143.62935000000002 219.35483000000002 142.43262000000001 217.22511 139.62307 C 219.24754000000001 141.37490000000003 221.91742 142.14829 224.39277 141.88070000000002 C 223.66447000000002 141.01817000000003 223.04084 140.06245 222.53346000000002 139.04577 C 221.56927000000002 137.24407 221.15968 135.11224 220.93155000000002 133.08399 C 220.93138000000002 133.08399 222.45120000000003 133.63804 222.45120000000003 133.63804 C 228.40327000000002 135.7787 235.43211000000002 134.44914 240.28651000000002 130.42276999999999 C 235.68652000000003 129.98515999999998 231.26641 127.87603999999999 228.22641000000002 124.39209999999999 C 232.21561000000003 127.50079999999998 237.41122000000001 129.17126 242.43225 128.70791 L 244.58118000000002 128.50814 C 242.925 130.58746 241.02483 132.65834 238.70819 133.99936 z" stroke-linecap="round" />
</g>
</g>
</g>
		<g transform="matrix(0.04853504422794629 0 0 0.048535044227946265 22.20105491205021 -35.18354130566121)"  >
<g style=""  paint-order="stroke"   >
		<g transform="matrix(1 0 0 1 0 0)"  >
<path style="stroke: none; stroke-width: 1; stroke-dasharray: none; stroke-linecap: butt; stroke-dashoffset: 0; stroke-linejoin: miter; stroke-miterlimit: 4; fill: rgb(53,35,70); fill-rule: nonzero; opacity: 1;"  paint-order="stroke"  transform=" translate(-100, -100)" d="M 200 100 C 200 155.22847498307934 155.22847498307934 200 100 200 C 44.771525016920656 200 0 155.22847498307934 0 100 C 0 44.771525016920656 44.771525016920656 0 100 0 C 155.22847498307934 0 200 44.77152501692063 200 99.99999999999997 Z" stroke-linecap="round" />
</g>
</g>
</g>
		<g transform="matrix(0.04853504422794629 0 0 0.048535044227946265 46.7753495845746 -50.29657671135561)"  >
<g style=""  paint-order="stroke"   >
		<g transform="matrix(1 0 0 1 0 0)"  >
<path style="stroke: none; stroke-width: 1; stroke-dasharray: none; stroke-linecap: butt; stroke-dashoffset: 0; stroke-linejoin: miter; stroke-miterlimit: 4; fill: rgb(53,35,70); fill-rule: nonzero; opacity: 1;"  paint-order="stroke"  transform=" translate(-100, -100)" d="M 200 100 C 200 155.22847498307934 155.22847498307934 200 100 200 C 44.771525016920656 200 0 155.22847498307934 0 100 C 0 44.771525016920656 44.771525016920656 0 100 0 C 155.22847498307934 0 200 44.77152501692063 200 99.99999999999997 Z" stroke-linecap="round" />
</g>
</g>
</g>
		<g transform="matrix(0.5995207633043501 -0.8251695395591863 0.8166999137766268 0.5933672199770295 17.86902206563093 9.802694335849367)"  >
<g style=""  paint-order="stroke"   >
		<g transform="matrix(1 0 0 1 0 0)"  >
<path style="stroke: none; stroke-width: 1; stroke-dasharray: none; stroke-linecap: butt; stroke-dashoffset: 0; stroke-linejoin: miter; stroke-miterlimit: 4; fill: rgb(248,199,112); fill-rule: nonzero; opacity: 1;"  paint-order="stroke"  transform=" translate(-121.99996999999999, -109.380555)" d="M 201.08258 3.94373 C 222.20721 24.48151 235.33594 53.20075 235.33594 84.99067000000001 C 235.33594 147.41804000000002 184.72858 198.02546 122.30126999999999 198.02546 C 59.87377999999999 198.02546 9.266359999999992 147.41804000000002 9.266359999999992 84.99067000000001 C 9.26636 51.1109 24.17603 20.71716 47.78711 0 C 18.75171 22.3219 0 57.39014 0 96.76111 C 0 164.03259 54.729 218.76111 122 218.76111 C 189.27142 218.76111 243.99993999999998 164.03259 243.99993999999998 96.76111 C 243.99994 59.63702 227.32751 26.33826 201.08258 3.94373 z" stroke-linecap="round" />
</g>
</g>
</g>
		<g transform="matrix(0.08068254223012114 0 0 0.08068254223012111 -20.135922851353826 -26.67960848167695)"  >
<g style=""  paint-order="stroke"   >
		<g transform="matrix(1 0 0 1 0 0)"  >
<path style="stroke: none; stroke-width: 1; stroke-dasharray: none; stroke-linecap: butt; stroke-dashoffset: 0; stroke-linejoin: miter; stroke-miterlimit: 4; fill: rgb(248,199,112); fill-rule: nonzero; opacity: 1;"  paint-order="stroke"  transform=" translate(-125.00000125, -124.99999125000001)" d="M 235.85918 104.68932 L 179.10619000000003 83.68894999999999 C 173.17839000000004 81.49547 168.50469000000004 76.82175 166.31112000000002 70.89389999999999 L 145.31054 14.140959999999986 C 138.33382 -4.713660000000015 111.6662 -4.713660000000015 104.68948 14.140959999999986 L 83.68888000000001 70.89389999999999 C 81.49555000000001 76.82175999999998 76.82163000000001 81.49546999999998 70.89403000000001 83.68894999999999 L 14.140830000000015 104.68932 C -4.713609999999985 111.66626 -4.713609999999985 138.33373999999998 14.140830000000015 145.31067 L 70.89403000000001 166.31105 C 76.82163000000001 168.50453 81.49555000000001 173.17824 83.68888000000001 179.10609 L 104.68948 235.85903 C 111.6662 254.71364 138.33382 254.71364 145.31054 235.85903 L 166.31112000000002 179.10609 C 168.50469 173.17822999999999 173.1784 168.50453 179.10619000000003 166.31105 L 235.85918000000004 145.31067 C 254.71361 138.33374 254.71361 111.66626 235.85918 104.68932 z" stroke-linecap="round" />
</g>
</g>
</g>
		<g transform="matrix(0.053172283569940554 0 0 0.05317228356994055 -110.18624366975823 -49.516398987899265)"  >
<g style=""  paint-order="stroke"   >
		<g transform="matrix(1 0 0 1 0 0)"  >
<path style="stroke: none; stroke-width: 1; stroke-dasharray: none; stroke-linecap: butt; stroke-dashoffset: 0; stroke-linejoin: miter; stroke-miterlimit: 4; fill: rgb(248,199,112); fill-rule: nonzero; opacity: 1;"  paint-order="stroke"  transform=" translate(-125.00000125, -124.99999125000001)" d="M 235.85918 104.68932 L 179.10619000000003 83.68894999999999 C 173.17839000000004 81.49547 168.50469000000004 76.82175 166.31112000000002 70.89389999999999 L 145.31054 14.140959999999986 C 138.33382 -4.713660000000015 111.6662 -4.713660000000015 104.68948 14.140959999999986 L 83.68888000000001 70.89389999999999 C 81.49555000000001 76.82175999999998 76.82163000000001 81.49546999999998 70.89403000000001 83.68894999999999 L 14.140830000000015 104.68932 C -4.713609999999985 111.66626 -4.713609999999985 138.33373999999998 14.140830000000015 145.31067 L 70.89403000000001 166.31105 C 76.82163000000001 168.50453 81.49555000000001 173.17824 83.68888000000001 179.10609 L 104.68948 235.85903 C 111.6662 254.71364 138.33382 254.71364 145.31054 235.85903 L 166.31112000000002 179.10609 C 168.50469 173.17822999999999 173.1784 168.50453 179.10619000000003 166.31105 L 235.85918000000004 145.31067 C 254.71361 138.33374 254.71361 111.66626 235.85918 104.68932 z" stroke-linecap="round" />
</g>
</g>
</g>
		<g transform="matrix(0.10510903340098215 0 0 0.10510903340098211 -117.4601867682552 -11.301410219821832)"  >
<g style=""  paint-order="stroke"   >
		<g transform="matrix(1 0 0 1 0 0)"  >
<path style="stroke: none; stroke-width: 1; stroke-dasharray: none; stroke-linecap: butt; stroke-dashoffset: 0; stroke-linejoin: miter; stroke-miterlimit: 4; fill: rgb(248,199,112); fill-rule: nonzero; opacity: 1;"  paint-order="stroke"  transform=" translate(-125.00000125, -124.99999125000001)" d="M 235.85918 104.68932 L 179.10619000000003 83.68894999999999 C 173.17839000000004 81.49547 168.50469000000004 76.82175 166.31112000000002 70.89389999999999 L 145.31054 14.140959999999986 C 138.33382 -4.713660000000015 111.6662 -4.713660000000015 104.68948 14.140959999999986 L 83.68888000000001 70.89389999999999 C 81.49555000000001 76.82175999999998 76.82163000000001 81.49546999999998 70.89403000000001 83.68894999999999 L 14.140830000000015 104.68932 C -4.713609999999985 111.66626 -4.713609999999985 138.33373999999998 14.140830000000015 145.31067 L 70.89403000000001 166.31105 C 76.82163000000001 168.50453 81.49555000000001 173.17824 83.68888000000001 179.10609 L 104.68948 235.85903 C 111.6662 254.71364 138.33382 254.71364 145.31054 235.85903 L 166.31112000000002 179.10609 C 168.50469 173.17822999999999 173.1784 168.50453 179.10619000000003 166.31105 L 235.85918000000004 145.31067 C 254.71361 138.33374 254.71361 111.66626 235.85918 104.68932 z" stroke-linecap="round" />
</g>
</g>
</g>
		<g transform="matrix(0.041129299914331 0 0 0.041129299914331 -94.60578988831605 -75.51546568636348)"  >
<g style=""  paint-order="stroke"   >
		<g transform="matrix(1 0 0 1 0 0)"  >
<path style="stroke: none; stroke-width: 1; stroke-dasharray: none; stroke-linecap: butt; stroke-dashoffset: 0; stroke-linejoin: miter; stroke-miterlimit: 4; fill: rgb(248,199,112); fill-rule: nonzero; opacity: 1;"  paint-order="stroke"  transform=" translate(-125.00000125, -124.99999125000001)" d="M 235.85918 104.68932 L 179.10619000000003 83.68894999999999 C 173.17839000000004 81.49547 168.50469000000004 76.82175 166.31112000000002 70.89389999999999 L 145.31054 14.140959999999986 C 138.33382 -4.713660000000015 111.6662 -4.713660000000015 104.68948 14.140959999999986 L 83.68888000000001 70.89389999999999 C 81.49555000000001 76.82175999999998 76.82163000000001 81.49546999999998 70.89403000000001 83.68894999999999 L 14.140830000000015 104.68932 C -4.713609999999985 111.66626 -4.713609999999985 138.33373999999998 14.140830000000015 145.31067 L 70.89403000000001 166.31105 C 76.82163000000001 168.50453 81.49555000000001 173.17824 83.68888000000001 179.10609 L 104.68948 235.85903 C 111.6662 254.71364 138.33382 254.71364 145.31054 235.85903 L 166.31112000000002 179.10609 C 168.50469 173.17822999999999 173.1784 168.50453 179.10619000000003 166.31105 L 235.85918000000004 145.31067 C 254.71361 138.33374 254.71361 111.66626 235.85918 104.68932 z" stroke-linecap="round" />
</g>
</g>
</g>
</g>
</g>
<g transform="matrix(0.24531328569161132 -1.905427377901058 1.9054273779010582 0.24531328569161137 324.7247197824745 480.3437472974287)" id="text-logo-0"  >
<g style=""  paint-order="stroke"   >
		<g transform="matrix(1 0 0 1 0 0)" id="da8a833c-d6e9-4afc-8e1b-a907411ea6da-path-0"  >
<path style="stroke: none; stroke-width: 0; stroke-dasharray: none; stroke-linecap: butt; stroke-dashoffset: 0; stroke-linejoin: miter; stroke-miterlimit: 4; fill: rgb(243,231,207); fill-rule: nonzero; opacity: 1;"  paint-order="stroke"  transform=" translate(-12.01, 11.55)" d="M 2.94 -15.41 L 2.94 -7.69 C 2.94 -5.25 2.44 -2.11 1.06 -1.02 C 0.86 -0.86 0.69 -0.79 0.69 -0.49 C 0.69 -0.23 0.92 0 1.22 0 L 6.83 0 C 7.1 0 7.29 -0.23 7.29 -0.49 C 7.29 -0.79 7.16 -0.86 6.96 -1.02 C 5.71 -2.11 5.25 -5.25 5.25 -7.69 L 5.25 -17.19 L 14.72 -1.78 C 15.41 -0.63 16.6 0 17.92 0 L 22.84 0 C 23.13 0 23.36 -0.23 23.36 -0.49 C 23.36 -0.79 23.2 -0.86 23 -1.02 C 21.62 -2.11 21.09 -5.25 21.09 -7.69 L 21.09 -15.41 C 21.09 -17.85 21.58 -20.99 22.97 -22.08 C 23.17 -22.24 23.33 -22.31 23.33 -22.61 C 23.33 -22.87 23.1 -23.1 22.8 -23.1 L 17.19 -23.1 C 16.93 -23.1 16.73 -22.87 16.73 -22.61 C 16.73 -22.31 16.86 -22.24 17.06 -22.08 C 18.32 -20.99 18.78 -17.85 18.78 -15.41 L 18.78 -6.47 L 9.64 -21.32 C 8.94 -22.47 7.76 -23.1 6.44 -23.1 L 1.19 -23.1 C 0.89 -23.1 0.66 -22.87 0.66 -22.61 C 0.66 -22.31 0.83 -22.24 1.02 -22.08 C 2.41 -20.99 2.94 -17.85 2.94 -15.41 Z" stroke-linecap="round" />
</g>
</g>
</g>
<g transform="matrix(0.6578601547573835 -1.8050075117224043 1.8050075117224047 0.6578601547573837 341.3436793931569 412.07489156675763)" id="text-logo-1"  >
<g style=""  paint-order="stroke"   >
		<g transform="matrix(1 0 0 1 0 0)" id="d2feacb4-dfc8-416d-8193-e203ecd1df98-path-0"  >
<path style="stroke: none; stroke-width: 0; stroke-dasharray: none; stroke-linecap: butt; stroke-dashoffset: 0; stroke-linejoin: miter; stroke-miterlimit: 4; fill: rgb(243,231,207); fill-rule: nonzero; opacity: 1;"  paint-order="stroke"  transform=" translate(-10.89, 11.55)" d="M 1.22 0 L 20.1 0 C 20.66 0 21.12 -0.46 21.12 -1.02 L 21.12 -4.79 C 21.12 -5.35 20.86 -5.74 20.53 -5.74 C 20.16 -5.74 20.1 -5.45 19.9 -5.08 C 18.58 -2.61 14.82 -1.65 11.88 -1.65 L 9.67 -1.65 C 8.91 -1.65 8.55 -4.49 8.55 -7.06 L 8.55 -10.72 L 10.89 -10.72 C 12.38 -10.72 14.26 -10.3 14.88 -9.04 C 14.98 -8.84 15.05 -8.71 15.21 -8.71 C 15.38 -8.71 15.51 -8.91 15.51 -9.17 L 15.51 -13.63 C 15.51 -13.89 15.38 -14.09 15.21 -14.09 C 15.05 -14.09 14.98 -13.96 14.88 -13.76 C 14.26 -12.51 12.38 -12.04 10.89 -12.04 L 8.55 -12.04 L 8.55 -16.04 C 8.55 -18.61 8.91 -21.45 9.67 -21.45 C 15.31 -21.45 14.75 -16.93 17.42 -16.93 C 19.3 -16.93 20.79 -18.32 20.79 -20.03 C 20.79 -21.71 19.3 -23.1 17.42 -23.1 L 1.19 -23.1 C 0.89 -23.1 0.66 -22.87 0.66 -22.61 C 0.66 -22.31 0.83 -22.24 1.02 -22.08 C 2.41 -20.99 2.94 -17.85 2.94 -15.41 L 2.94 -7.69 C 2.94 -5.25 2.44 -2.11 1.06 -1.02 C 0.86 -0.86 0.69 -0.79 0.69 -0.49 C 0.69 -0.23 0.92 0 1.22 0 Z" stroke-linecap="round" />
</g>
</g>
</g>
<g transform="matrix(1.0410181898007715 -1.614655761794334 1.6146557617943342 1.0410181898007718 372.8441318274331 348.66599575146955)" id="text-logo-2"  >
<g style=""  paint-order="stroke"   >
		<g transform="matrix(1 0 0 1 0 0)" id="968d0750-b3f6-4192-b973-6f1e26dfa41f-path-0"  >
<path style="stroke: none; stroke-width: 0; stroke-dasharray: none; stroke-linecap: butt; stroke-dashoffset: 0; stroke-linejoin: miter; stroke-miterlimit: 4; fill: rgb(243,231,207); fill-rule: nonzero; opacity: 1;"  paint-order="stroke"  transform=" translate(-12.245, 11.55)" d="M 12.31 0.33 C 19.24 0.33 23.83 -3.96 23.83 -11.58 C 23.83 -18.68 19.64 -23.43 12.31 -23.43 C 5.31 -23.43 0.66 -19.14 0.66 -11.58 C 0.66 -4.42 4.85 0.33 12.31 0.33 Z M 12.28 -1.35 C 8.84 -1.35 6.93 -5.45 6.93 -11.58 C 6.93 -18.05 9.08 -21.75 12.28 -21.75 C 15.64 -21.75 17.56 -17.66 17.56 -11.58 C 17.56 -5.05 15.48 -1.35 12.28 -1.35 Z" stroke-linecap="round" />
</g>
</g>
</g>
<g transform="matrix(1.3229421725043762 -1.393074337141101 1.3930743371411012 1.3229421725043764 411.4140082224711 303.77726990032045)" id="text-logo-3"  >
<g style=""  paint-order="stroke"   >
		<g transform="matrix(1 0 0 1 0 0)" id="605da9b1-b1c8-47f7-bd8f-b8f9279c601d-path-0"  >
<path style="stroke: none; stroke-width: 0; stroke-dasharray: none; stroke-linecap: butt; stroke-dashoffset: 0; stroke-linejoin: miter; stroke-miterlimit: 4; fill: rgb(243,231,207); fill-rule: nonzero; opacity: 1;"  paint-order="stroke"  transform=" translate(-5.61, 10.2)" d="M 0.66 -10.86 L 0.66 -9.54 C 0.66 -9.34 0.79 -9.21 0.99 -9.21 L 10.23 -9.21 C 10.43 -9.21 10.56 -9.34 10.56 -9.54 L 10.56 -10.86 C 10.56 -11.05 10.43 -11.19 10.23 -11.19 L 0.99 -11.19 C 0.79 -11.19 0.66 -11.05 0.66 -10.86 Z" stroke-linecap="round" />
</g>
</g>
</g>
<g transform="matrix(1.5590960004462886 -1.1225202724156482 1.1225202724156484 1.5590960004462888 454.33887185872754 262.8796898044683)" id="text-logo-4"  >
<g style=""  paint-order="stroke"   >
		<g transform="matrix(1 0 0 1 0 0)" id="44dbb746-5291-4ef2-b85c-25a809ab19df-path-0"  >
<path style="stroke: none; stroke-width: 0; stroke-dasharray: none; stroke-linecap: butt; stroke-dashoffset: 0; stroke-linejoin: miter; stroke-miterlimit: 4; fill: rgb(243,231,207); fill-rule: nonzero; opacity: 1;"  paint-order="stroke"  transform=" translate(-12.31, 11.55)" d="M 2.94 -15.41 L 2.94 -7.69 C 2.94 -5.25 2.44 -2.11 1.06 -1.02 C 0.86 -0.86 0.69 -0.79 0.69 -0.49 C 0.69 -0.23 0.92 0 1.22 0 L 11.45 0 C 18.81 0 23.96 -5.15 23.96 -11.58 C 23.96 -17.95 18.81 -23.1 11.45 -23.1 L 1.19 -23.1 C 0.89 -23.1 0.66 -22.87 0.66 -22.61 C 0.66 -22.31 0.83 -22.24 1.02 -22.08 C 2.41 -20.99 2.94 -17.85 2.94 -15.41 Z M 8.55 -7.06 L 8.55 -16.04 C 8.55 -18.61 8.91 -21.45 9.67 -21.45 L 11.12 -21.45 C 15.18 -21.45 17.69 -17.03 17.69 -11.58 C 17.69 -6.07 15.18 -1.65 11.12 -1.65 L 9.67 -1.65 C 8.91 -1.65 8.55 -4.49 8.55 -7.06 Z" stroke-linecap="round" />
</g>
</g>
</g>
<g transform="matrix(1.7788868852167397 -0.7255298410097291 0.7255298410097291 1.7788868852167399 520.12732370199 226.8168426929713)" id="text-logo-5"  >
<g style=""  paint-order="stroke"   >
		<g transform="matrix(1 0 0 1 0 0)" id="5518d55d-1a05-4d0f-9069-a8da190c74d8-path-0"  >
<path style="stroke: none; stroke-width: 0; stroke-dasharray: none; stroke-linecap: butt; stroke-dashoffset: 0; stroke-linejoin: miter; stroke-miterlimit: 4; fill: rgb(243,231,207); fill-rule: nonzero; opacity: 1;"  paint-order="stroke"  transform=" translate(-12.82, 11.385000000000002)" d="M 12.84 0.33 C 18.28 0.33 22.74 -3.23 22.74 -8.42 L 22.74 -15.41 C 22.74 -17.85 23.23 -20.99 24.62 -22.08 C 24.82 -22.24 24.98 -22.31 24.98 -22.61 C 24.98 -22.87 24.75 -23.1 24.45 -23.1 L 15.54 -23.1 C 15.28 -23.1 15.08 -22.87 15.08 -22.61 C 15.08 -22.31 15.21 -22.24 15.41 -22.08 C 16.66 -20.99 17.13 -17.85 17.13 -15.41 L 17.13 -5.74 C 17.13 -2.94 15.21 -1.32 12.84 -1.32 C 10.46 -1.32 8.55 -2.94 8.55 -5.74 L 8.55 -15.41 C 8.55 -17.85 9.01 -20.99 10.23 -22.08 C 10.43 -22.24 10.56 -22.31 10.56 -22.61 C 10.56 -22.87 10.36 -23.1 10.1 -23.1 L 1.19 -23.1 C 0.89 -23.1 0.66 -22.87 0.66 -22.61 C 0.66 -22.31 0.83 -22.24 1.02 -22.08 C 2.41 -20.99 2.94 -17.85 2.94 -15.41 L 2.94 -8.42 C 2.94 -3.23 7.39 0.33 12.84 0.33 Z" stroke-linecap="round" />
</g>
</g>
</g>
<g transform="matrix(1.9058164369825938 -0.24227217982815838 0.2422721798281584 1.905816436982594 600.027425800945 205.50554646647578)" id="text-logo-6"  >
<g style=""  paint-order="stroke"   >
		<g transform="matrix(1 0 0 1 0 0)" id="cfe61065-073f-433e-8a5d-ec9e95b8b7ea-path-0"  >
<path style="stroke: none; stroke-width: 0; stroke-dasharray: none; stroke-linecap: butt; stroke-dashoffset: 0; stroke-linejoin: miter; stroke-miterlimit: 4; fill: rgb(243,231,207); fill-rule: nonzero; opacity: 1;"  paint-order="stroke"  transform=" translate(-15.805, 11.55)" d="M 2.94 -15.41 L 2.94 -7.69 C 2.94 -5.25 2.44 -2.11 1.06 -1.02 C 0.86 -0.86 0.69 -0.79 0.69 -0.49 C 0.69 -0.23 0.92 0 1.22 0 L 6.83 0 C 7.1 0 7.29 -0.23 7.29 -0.49 C 7.29 -0.79 7.16 -0.86 6.96 -1.02 C 5.71 -2.11 5.25 -5.25 5.25 -7.69 L 5.25 -17.52 L 12.21 -0.76 C 12.41 -0.3 12.8 0 13.3 0 L 14.65 0 C 15.15 0 15.61 -0.33 15.77 -0.79 L 23.07 -19.67 L 23.07 -7.69 C 23.07 -5.25 22.57 -2.11 21.19 -1.02 C 20.99 -0.86 20.82 -0.79 20.82 -0.49 C 20.82 -0.23 21.05 0 21.35 0 L 30.43 0 C 30.72 0 30.95 -0.23 30.95 -0.49 C 30.95 -0.79 30.79 -0.86 30.59 -1.02 C 29.21 -2.11 28.68 -5.25 28.68 -7.69 L 28.68 -15.41 C 28.68 -17.85 29.17 -20.99 30.56 -22.08 C 30.76 -22.24 30.92 -22.31 30.92 -22.61 C 30.92 -22.87 30.69 -23.1 30.39 -23.1 L 24.26 -23.1 C 22.7 -23.1 21.42 -22.18 20.86 -20.76 L 15.71 -7.39 L 10.2 -20.69 C 9.57 -22.18 8.22 -23.1 6.6 -23.1 L 1.19 -23.1 C 0.89 -23.1 0.66 -22.87 0.66 -22.61 C 0.66 -22.31 0.83 -22.24 1.02 -22.08 C 2.41 -20.99 2.94 -17.85 2.94 -15.41 Z" stroke-linecap="round" />
</g>
</g>
</g>
<g transform="matrix(1.902725746100614 0.26545590164390037 -0.2654559016439005 1.9027257461006144 684.0853422326682 206.0247766794629)" id="text-logo-7"  >
<g style=""  paint-order="stroke"   >
		<g transform="matrix(1 0 0 1 0 0)" id="94098bbe-e96a-4220-b3d6-22a4e0da0df4-path-0"  >
<path style="stroke: none; stroke-width: 0; stroke-dasharray: none; stroke-linecap: butt; stroke-dashoffset: 0; stroke-linejoin: miter; stroke-miterlimit: 4; fill: rgb(243,231,207); fill-rule: nonzero; opacity: 1;"  paint-order="stroke"  transform=" translate(-13.465, 11.55)" d="M 17.19 0 L 25.91 0 C 26.1 0 26.27 -0.13 26.27 -0.3 C 26.27 -0.46 26.17 -0.53 26.04 -0.63 C 25.05 -1.25 23.6 -2.94 23.07 -4.32 L 17.13 -20.33 C 16.5 -22.04 14.95 -23.1 13.13 -23.1 L 8.58 -23.1 C 8.32 -23.1 8.12 -22.9 8.12 -22.67 C 8.12 -22.37 8.25 -22.34 8.45 -22.18 C 8.91 -21.81 9.41 -21.32 9.93 -20.72 L 3.86 -4.32 C 3.33 -2.94 1.91 -1.25 0.92 -0.63 C 0.79 -0.53 0.66 -0.46 0.66 -0.3 C 0.66 -0.13 0.83 0 1.06 0 L 6.47 0 C 6.73 0 6.93 -0.23 6.93 -0.49 C 6.93 -0.79 6.8 -0.86 6.6 -1.02 C 5.35 -2.11 6.7 -4.92 7.56 -7.19 L 7.66 -7.43 L 15.97 -7.43 L 16.07 -7.19 C 16.93 -4.92 18.32 -2.11 17.06 -1.02 C 16.86 -0.86 16.73 -0.79 16.73 -0.49 C 16.73 -0.23 16.93 0 17.19 0 Z M 8.12 -8.75 L 11.71 -18.35 C 12.04 -17.79 12.38 -17.13 12.57 -16.6 L 15.51 -8.75 Z" stroke-linecap="round" />
</g>
</g>
</g>
<g transform="matrix(1.7992854606093005 0.6733527543804163 -0.6733527543804163 1.7992854606093005 751.5964902088436 223.15044161147722)" id="text-logo-8"  >
<g style=""  paint-order="stroke"   >
		<g transform="matrix(1 0 0 1 7.10543e-15 0)" id="052e9b52-3442-43bc-b18e-6496898a826e-path-0"  >
<path style="stroke: none; stroke-width: 0; stroke-dasharray: none; stroke-linecap: butt; stroke-dashoffset: 0; stroke-linejoin: miter; stroke-miterlimit: 4; fill: rgb(243,231,207); fill-rule: nonzero; opacity: 1;"  paint-order="stroke"  transform=" translate(-9.175, 11.55)" d="M 9.97 -21.65 C 12.87 -21.65 11.48 -20.3 11.48 -18.94 C 11.48 -17.62 12.64 -16.73 13.99 -16.73 C 15.25 -16.73 16.86 -17.32 16.86 -18.98 C 16.86 -20.56 15.15 -23.43 9.74 -23.43 C 6.07 -23.43 0.79 -21.75 1.12 -17.13 C 1.12 -11.12 11.42 -7.92 11.42 -3.66 C 11.42 -2.74 10.59 -1.39 9.14 -1.39 C 6.73 -1.39 6.83 -3.07 6.83 -4.75 C 6.83 -6.44 5.38 -7.56 3.7 -7.56 C 2.11 -7.56 0.66 -6.5 0.66 -4.42 C 0.66 -2.44 2.28 0.33 9.08 0.33 C 13.17 0.33 17.69 -2.21 17.69 -5.74 C 17.69 -11.29 7.39 -14.62 7.39 -18.28 C 7.39 -20.06 8.55 -21.65 9.97 -21.65 Z" stroke-linecap="round" />
</g>
</g>
</g>
<g transform="matrix(1.6262363196780396 1.0228330915412063 -1.0228330915412063 1.6262363196780396 809.4032240856925 251.7780022693335)" id="text-logo-9"  >
<g style=""  paint-order="stroke"   >
		<g transform="matrix(1 0 0 1 0 0)" id="93ab1431-2cec-4549-960a-10536934632e-path-0"  >
<path style="stroke: none; stroke-width: 0; stroke-dasharray: none; stroke-linecap: butt; stroke-dashoffset: 0; stroke-linejoin: miter; stroke-miterlimit: 4; fill: rgb(243,231,207); fill-rule: nonzero; opacity: 1;"  paint-order="stroke"  transform=" translate(-11.09, 11.55)" d="M 6.57 0 L 15.64 0 C 15.94 0 16.17 -0.23 16.17 -0.49 C 16.17 -0.79 16 -0.86 15.81 -1.02 C 14.42 -2.11 13.89 -5.25 13.89 -7.69 L 13.89 -16.04 C 13.89 -18.61 14.26 -21.45 15.02 -21.45 L 15.38 -21.45 C 17.32 -21.48 19.83 -20.66 20.69 -18.45 C 20.82 -18.12 20.89 -17.85 21.12 -17.85 C 21.32 -17.85 21.52 -18.22 21.52 -18.71 L 21.52 -22.08 C 21.52 -22.64 21.05 -23.1 20.49 -23.1 L 1.68 -23.1 C 1.12 -23.1 0.66 -22.64 0.66 -22.08 L 0.66 -18.64 C 0.66 -18.18 0.86 -17.82 1.06 -17.82 C 1.29 -17.82 1.35 -18.08 1.49 -18.38 C 2.34 -20.59 4.85 -21.45 6.8 -21.45 L 7.16 -21.45 C 7.92 -21.45 8.28 -18.61 8.28 -16.04 L 8.28 -7.69 C 8.28 -5.25 7.79 -2.11 6.4 -1.02 C 6.2 -0.86 6.04 -0.79 6.04 -0.49 C 6.04 -0.23 6.27 0 6.57 0 Z" stroke-linecap="round" />
</g>
</g>
</g>
<g transform="matrix(1.3664443187124469 1.3504303108454703 -1.3504303108454703 1.366444318712447 863.3968607030789 294.9914800461312)" id="text-logo-10"  >
<g style=""  paint-order="stroke"   >
		<g transform="matrix(1 0 0 1 0 0)" id="c16b3e9c-6617-4701-a022-6cadf526a3d6-path-0"  >
<path style="stroke: none; stroke-width: 0; stroke-dasharray: none; stroke-linecap: butt; stroke-dashoffset: 0; stroke-linejoin: miter; stroke-miterlimit: 4; fill: rgb(243,231,207); fill-rule: nonzero; opacity: 1;"  paint-order="stroke"  transform=" translate(-11.285, 11.385000000000002)" d="M 1.22 0 L 10.13 0 C 10.4 0 10.59 -0.23 10.59 -0.49 C 10.59 -0.79 10.46 -0.86 10.26 -1.02 C 9.01 -2.11 8.55 -5.25 8.55 -7.69 L 8.55 -9.93 L 8.81 -9.93 L 9.44 -9.93 C 12.64 -9.37 11.48 0.33 18.32 0.33 C 20.66 0.33 21.91 -1.42 21.91 -3.1 C 21.91 -4.79 20.89 -6.47 19.21 -6.47 C 17.75 -6.47 17.66 -5.41 16.7 -5.41 C 15.25 -5.41 14.09 -8.48 12.61 -10.26 C 17.03 -11.12 19.27 -13.56 19.27 -16.5 C 19.27 -20.13 15.81 -23.1 9.47 -23.1 L 1.19 -23.1 C 0.89 -23.1 0.66 -22.87 0.66 -22.61 C 0.66 -22.31 0.83 -22.24 1.02 -22.08 C 2.41 -20.99 2.94 -17.85 2.94 -15.41 L 2.94 -7.69 C 2.94 -5.25 2.44 -2.11 1.06 -1.02 C 0.86 -0.86 0.69 -0.79 0.69 -0.49 C 0.69 -0.23 0.92 0 1.22 0 Z M 8.55 -16.04 C 8.55 -18.61 8.91 -21.45 9.67 -21.45 C 12.41 -21.45 13 -19.17 13 -16.5 C 13 -13.83 12.01 -11.58 8.81 -11.58 L 8.55 -11.58 Z" stroke-linecap="round" />
</g>
</g>
</g>
<g transform="matrix(1.0157496390108327 1.630670037573843 -1.6306700375738432 1.0157496390108327 910.0452478070827 352.8608887592896)" id="text-logo-11"  >
<g style=""  paint-order="stroke"   >
		<g transform="matrix(1 0 0 1 0 0)" id="ee59658c-9f0a-4015-b9dd-9705474fe9b4-path-0"  >
<path style="stroke: none; stroke-width: 0; stroke-dasharray: none; stroke-linecap: butt; stroke-dashoffset: 0; stroke-linejoin: miter; stroke-miterlimit: 4; fill: rgb(243,231,207); fill-rule: nonzero; opacity: 1;"  paint-order="stroke"  transform=" translate(-13.465, 11.55)" d="M 17.19 0 L 25.91 0 C 26.1 0 26.27 -0.13 26.27 -0.3 C 26.27 -0.46 26.17 -0.53 26.04 -0.63 C 25.05 -1.25 23.6 -2.94 23.07 -4.32 L 17.13 -20.33 C 16.5 -22.04 14.95 -23.1 13.13 -23.1 L 8.58 -23.1 C 8.32 -23.1 8.12 -22.9 8.12 -22.67 C 8.12 -22.37 8.25 -22.34 8.45 -22.18 C 8.91 -21.81 9.41 -21.32 9.93 -20.72 L 3.86 -4.32 C 3.33 -2.94 1.91 -1.25 0.92 -0.63 C 0.79 -0.53 0.66 -0.46 0.66 -0.3 C 0.66 -0.13 0.83 0 1.06 0 L 6.47 0 C 6.73 0 6.93 -0.23 6.93 -0.49 C 6.93 -0.79 6.8 -0.86 6.6 -1.02 C 5.35 -2.11 6.7 -4.92 7.56 -7.19 L 7.66 -7.43 L 15.97 -7.43 L 16.07 -7.19 C 16.93 -4.92 18.32 -2.11 17.06 -1.02 C 16.86 -0.86 16.73 -0.79 16.73 -0.49 C 16.73 -0.23 16.93 0 17.19 0 Z M 8.12 -8.75 L 11.71 -18.35 C 12.04 -17.79 12.38 -17.13 12.57 -16.6 L 15.51 -8.75 Z" stroke-linecap="round" />
</g>
</g>
</g>
<g transform="matrix(0.6008185963794512 1.8247874163409672 -1.8247874163409674 0.6008185963794512 942.1635706045599 421.529653482272)" id="text-logo-12"  >
<g style=""  paint-order="stroke"   >
		<g transform="matrix(1 0 0 1 0 0)" id="81098471-6a2e-4bf0-9e1b-4a4ea9bae7eb-path-0"  >
<path style="stroke: none; stroke-width: 0; stroke-dasharray: none; stroke-linecap: butt; stroke-dashoffset: 0; stroke-linejoin: miter; stroke-miterlimit: 4; fill: rgb(243,231,207); fill-rule: nonzero; opacity: 1;"  paint-order="stroke"  transform=" translate(-12.01, 11.55)" d="M 2.94 -15.41 L 2.94 -7.69 C 2.94 -5.25 2.44 -2.11 1.06 -1.02 C 0.86 -0.86 0.69 -0.79 0.69 -0.49 C 0.69 -0.23 0.92 0 1.22 0 L 6.83 0 C 7.1 0 7.29 -0.23 7.29 -0.49 C 7.29 -0.79 7.16 -0.86 6.96 -1.02 C 5.71 -2.11 5.25 -5.25 5.25 -7.69 L 5.25 -17.19 L 14.72 -1.78 C 15.41 -0.63 16.6 0 17.92 0 L 22.84 0 C 23.13 0 23.36 -0.23 23.36 -0.49 C 23.36 -0.79 23.2 -0.86 23 -1.02 C 21.62 -2.11 21.09 -5.25 21.09 -7.69 L 21.09 -15.41 C 21.09 -17.85 21.58 -20.99 22.97 -22.08 C 23.17 -22.24 23.33 -22.31 23.33 -22.61 C 23.33 -22.87 23.1 -23.1 22.8 -23.1 L 17.19 -23.1 C 16.93 -23.1 16.73 -22.87 16.73 -22.61 C 16.73 -22.31 16.86 -22.24 17.06 -22.08 C 18.32 -20.99 18.78 -17.85 18.78 -15.41 L 18.78 -6.47 L 9.64 -21.32 C 8.94 -22.47 7.76 -23.1 6.44 -23.1 L 1.19 -23.1 C 0.89 -23.1 0.66 -22.87 0.66 -22.61 C 0.66 -22.31 0.83 -22.24 1.02 -22.08 C 2.41 -20.99 2.94 -17.85 2.94 -15.41 Z" stroke-linecap="round" />
</g>
</g>
</g>
<g transform="matrix(0.20804492801644295 1.9098558606654976 -1.909855860665498 0.20804492801644303 956.2422182258854 486.56144724866226)" id="text-logo-13"  >
<g style=""  paint-order="stroke"   >
		<g transform="matrix(1 0 0 1 0 0)" id="5e9e268a-8077-4aa1-89aa-a16fe565d53d-path-0"  >
<path style="stroke: none; stroke-width: 0; stroke-dasharray: none; stroke-linecap: butt; stroke-dashoffset: 0; stroke-linejoin: miter; stroke-miterlimit: 4; fill: rgb(243,231,207); fill-rule: nonzero; opacity: 1;"  paint-order="stroke"  transform=" translate(-9.175, 11.55)" d="M 9.97 -21.65 C 12.87 -21.65 11.48 -20.3 11.48 -18.94 C 11.48 -17.62 12.64 -16.73 13.99 -16.73 C 15.25 -16.73 16.86 -17.32 16.86 -18.98 C 16.86 -20.56 15.15 -23.43 9.74 -23.43 C 6.07 -23.43 0.79 -21.75 1.12 -17.13 C 1.12 -11.12 11.42 -7.92 11.42 -3.66 C 11.42 -2.74 10.59 -1.39 9.14 -1.39 C 6.73 -1.39 6.83 -3.07 6.83 -4.75 C 6.83 -6.44 5.38 -7.56 3.7 -7.56 C 2.11 -7.56 0.66 -6.5 0.66 -4.42 C 0.66 -2.44 2.28 0.33 9.08 0.33 C 13.17 0.33 17.69 -2.21 17.69 -5.74 C 17.69 -11.29 7.39 -14.62 7.39 -18.28 C 7.39 -20.06 8.55 -21.65 9.97 -21.65 Z" stroke-linecap="round" />
</g>
</g>
</g>
<g transform="matrix(0.9258757471577715 1.6833259343979567 -1.6833259343979567 0.9258757471577715 357.1880627540557 651.7442215245911)" id="tagline-2909e390-c639-4628-8b8b-8c62c21938d9-logo-0"  >
<g style=""  paint-order="stroke"   >
		<g transform="matrix(1 0 0 1 0 0)" id="1615c6d9-1b5f-4669-853e-29d3e8c1a04e-path-0"  >
<path style="stroke: none; stroke-width: 0; stroke-dasharray: none; stroke-linecap: butt; stroke-dashoffset: 0; stroke-linejoin: miter; stroke-miterlimit: 4; fill: rgb(248,199,112); fill-rule: nonzero; opacity: 1;"  paint-order="stroke"  transform=" translate(-6.420000000000001, 6.755)" d="M 12.14 -7.37 L 12.14 -1.67 Q 11.78 -1.28 11.06 -0.85 Q 10.34 -0.42 9.26 -0.12 Q 8.17 0.19 6.71 0.19 L 6.71 0.19 Q 4.89 0.19 3.54 -0.58 Q 2.19 -1.35 1.44 -2.82 Q 0.7 -4.3 0.7 -6.44 L 0.7 -6.44 L 0.7 -7.05 Q 0.7 -9.19 1.45 -10.68 Q 2.2 -12.16 3.52 -12.93 Q 4.83 -13.7 6.52 -13.7 L 6.52 -13.7 Q 8.42 -13.7 9.61 -13.1 Q 10.8 -12.51 11.4 -11.44 Q 12 -10.37 12.13 -8.98 L 12.13 -8.98 L 8.79 -8.98 Q 8.7 -9.63 8.46 -10.06 Q 8.22 -10.48 7.78 -10.7 Q 7.35 -10.91 6.64 -10.91 L 6.64 -10.91 Q 5.91 -10.91 5.37 -10.5 Q 4.82 -10.09 4.53 -9.24 Q 4.23 -8.4 4.23 -7.07 L 4.23 -7.07 L 4.23 -6.44 Q 4.23 -5.14 4.51 -4.29 Q 4.8 -3.44 5.4 -3.03 Q 6 -2.62 6.96 -2.62 L 6.96 -2.62 Q 7.43 -2.62 7.76 -2.69 Q 8.09 -2.76 8.31 -2.86 Q 8.54 -2.96 8.66 -3.06 L 8.66 -3.06 L 8.66 -4.9 L 6.55 -4.9 L 6.55 -7.37 L 12.14 -7.37 Z" stroke-linecap="round" />
</g>
</g>
</g>
<g transform="matrix(1.1410077108041918 1.5456175155830416 -1.5456175155830418 1.141007710804192 380.6798274901131 688.4091919594041)" id="tagline-2909e390-c639-4628-8b8b-8c62c21938d9-logo-1"  >
<g style=""  paint-order="stroke"   >
		<g transform="matrix(1 0 0 1 0 0)" id="0d46789b-9824-4899-9273-f3ebe3527303-path-0"  >
<path style="stroke: none; stroke-width: 0; stroke-dasharray: none; stroke-linecap: butt; stroke-dashoffset: 0; stroke-linejoin: miter; stroke-miterlimit: 4; fill: rgb(248,199,112); fill-rule: nonzero; opacity: 1;"  paint-order="stroke"  transform=" translate(-6.47, 6.755)" d="M 0.96 -13.51 L 6.36 -13.51 Q 7.95 -13.51 9.11 -13.04 Q 10.27 -12.57 10.9 -11.66 Q 11.53 -10.75 11.53 -9.41 L 11.53 -9.41 Q 11.53 -8.2 11.17 -7.42 Q 10.82 -6.63 10.18 -6.14 Q 9.55 -5.64 8.69 -5.29 L 8.69 -5.29 L 7.55 -4.59 L 3.15 -4.59 L 3.13 -7.4 L 6.33 -7.4 Q 6.9 -7.4 7.29 -7.59 Q 7.67 -7.77 7.86 -8.14 Q 8.05 -8.51 8.05 -9.05 L 8.05 -9.05 Q 8.05 -9.82 7.63 -10.26 Q 7.2 -10.7 6.36 -10.7 L 6.36 -10.7 L 4.44 -10.7 L 4.44 0 L 0.96 0 L 0.96 -13.51 Z M 8.25 0 L 5.32 -5.95 L 9.01 -5.97 L 11.98 -0.15 L 11.98 0 L 8.25 0 Z" stroke-linecap="round" />
</g>
</g>
</g>
<g transform="matrix(1.3372138615253377 1.3793807266799871 -1.3793807266799873 1.337213861525338 408.295132544236 720.9488750825128)" id="tagline-2909e390-c639-4628-8b8b-8c62c21938d9-logo-2"  >
<g style=""  paint-order="stroke"   >
		<g transform="matrix(1 0 0 1 0 0)" id="a30f6239-04f6-4a38-aa46-5d14950d09e7-path-0"  >
<path style="stroke: none; stroke-width: 0; stroke-dasharray: none; stroke-linecap: butt; stroke-dashoffset: 0; stroke-linejoin: miter; stroke-miterlimit: 4; fill: rgb(248,199,112); fill-rule: nonzero; opacity: 1;"  paint-order="stroke"  transform=" translate(-6.540000000000001, 6.755)" d="M 6.84 -10.25 L 3.67 0 L -0.06 0 L 4.89 -13.51 L 7.25 -13.51 L 6.84 -10.25 Z M 9.4 0 L 6.23 -10.25 L 5.77 -13.51 L 8.15 -13.51 L 13.14 0 L 9.4 0 Z M 9.36 -5.07 L 9.36 -2.26 L 2.43 -2.26 L 2.43 -5.07 L 9.36 -5.07 Z" stroke-linecap="round" />
</g>
</g>
</g>
<g transform="matrix(1.5091027695689991 1.1888822193434012 -1.1888822193434017 1.5091027695689996 440.405568435685 749.8944368248369)" id="tagline-2909e390-c639-4628-8b8b-8c62c21938d9-logo-3"  >
<g style=""  paint-order="stroke"   >
		<g transform="matrix(1 0 0 1 0 -8.8818e-16)" id="ff0ca78c-3c90-4d67-bde7-920bf1e05614-path-0"  >
<path style="stroke: none; stroke-width: 0; stroke-dasharray: none; stroke-linecap: butt; stroke-dashoffset: 0; stroke-linejoin: miter; stroke-miterlimit: 4; fill: rgb(248,199,112); fill-rule: nonzero; opacity: 1;"  paint-order="stroke"  transform=" translate(-6.32, 6.755)" d="M 8.56 -4.65 L 12.03 -4.65 Q 11.98 -3.22 11.27 -2.13 Q 10.57 -1.04 9.32 -0.43 Q 8.07 0.19 6.38 0.19 L 6.38 0.19 Q 4.56 0.19 3.26 -0.62 Q 1.96 -1.42 1.28 -2.91 Q 0.59 -4.41 0.59 -6.48 L 0.59 -6.48 L 0.59 -7.02 Q 0.59 -9.1 1.31 -10.59 Q 2.02 -12.09 3.31 -12.9 Q 4.59 -13.7 6.33 -13.7 L 6.33 -13.7 Q 8.13 -13.7 9.36 -13.05 Q 10.59 -12.4 11.26 -11.28 Q 11.93 -10.16 12.05 -8.75 L 12.05 -8.75 L 8.58 -8.75 Q 8.56 -9.81 8.07 -10.33 Q 7.58 -10.85 6.33 -10.85 L 6.33 -10.85 Q 5.58 -10.85 5.09 -10.49 Q 4.6 -10.13 4.36 -9.3 Q 4.13 -8.47 4.13 -7.04 L 4.13 -7.04 L 4.13 -6.48 Q 4.13 -5.04 4.34 -4.21 Q 4.55 -3.38 5.04 -3.02 Q 5.54 -2.67 6.38 -2.67 L 6.38 -2.67 Q 7.08 -2.67 7.56 -2.88 Q 8.04 -3.08 8.3 -3.52 Q 8.55 -3.95 8.56 -4.65 L 8.56 -4.65 Z" stroke-linecap="round" />
</g>
</g>
</g>
<g transform="matrix(1.646384702866545 0.9900755076047256 -0.9900755076047257 1.6463847028665453 474.2821810644425 773.232949513907)" id="tagline-2909e390-c639-4628-8b8b-8c62c21938d9-logo-4"  >
<g style=""  paint-order="stroke"   >
		<g transform="matrix(1 0 0 1 0 0)" id="247c9a0d-06c6-4a1a-ab38-0342ec4c0d2e-path-0"  >
<path style="stroke: none; stroke-width: 0; stroke-dasharray: none; stroke-linecap: butt; stroke-dashoffset: 0; stroke-linejoin: miter; stroke-miterlimit: 4; fill: rgb(248,199,112); fill-rule: nonzero; opacity: 1;"  paint-order="stroke"  transform=" translate(-5.665, 6.755)" d="M 10.34 -2.8 L 10.34 0 L 3.21 0 L 3.21 -2.8 L 10.34 -2.8 Z M 4.44 -13.51 L 4.44 0 L 0.96 0 L 0.96 -13.51 L 4.44 -13.51 Z M 9.43 -8.28 L 9.43 -5.58 L 3.21 -5.58 L 3.21 -8.28 L 9.43 -8.28 Z M 10.37 -13.51 L 10.37 -10.7 L 3.21 -10.7 L 3.21 -13.51 L 10.37 -13.51 Z" stroke-linecap="round" />
</g>
</g>
</g>
<g transform="matrix(0.9047169449066281 0.4260132035498632 -0.4260132035498632 0.9047169449066281 252.7030591095078 410.92982276210154)" id="tagline-2909e390-c639-4628-8b8b-8c62c21938d9-logo-5"  >
<g style=""  paint-order="stroke"   >
		<g transform="matrix(1 0 0 1 0 0)" id="27eec07f-6529-41e2-96d1-fa5691319f7c-path-0"  >
<path style="stroke: none; stroke-width: 0; stroke-dasharray: none; stroke-linecap: butt; stroke-dashoffset: 0; stroke-linejoin: miter; stroke-miterlimit: 4; fill: rgb(248,199,112); fill-rule: nonzero; opacity: 1;"  paint-order="stroke"  transform=" translate(0, 0)" d="" stroke-linecap="round" />
</g>
</g>
</g>
<g transform="matrix(1.8020812731574725 0.6658342027313251 -0.6658342027313251 1.8020812731574725 528.1461589744092 799.0225335920773)" id="tagline-2909e390-c639-4628-8b8b-8c62c21938d9-logo-6"  >
<g style=""  paint-order="stroke"   >
		<g transform="matrix(1 0 0 1 0 0)" id="c7529e49-0136-4135-a6ed-97ef3e3e95c5-path-0"  >
<path style="stroke: none; stroke-width: 0; stroke-dasharray: none; stroke-linecap: butt; stroke-dashoffset: 0; stroke-linejoin: miter; stroke-miterlimit: 4; fill: rgb(248,199,112); fill-rule: nonzero; opacity: 1;"  paint-order="stroke"  transform=" translate(-2.905, 6.755)" d="M 4.64 -13.51 L 4.64 0 L 1.17 0 L 1.17 -13.51 L 4.64 -13.51 Z" stroke-linecap="round" />
</g>
</g>
</g>
<g transform="matrix(1.8658344643503335 0.457704983842453 -0.457704983842453 1.8658344643503335 563.0680739956715 809.7221856967307)" id="tagline-2909e390-c639-4628-8b8b-8c62c21938d9-logo-7"  >
<g style=""  paint-order="stroke"   >
		<g transform="matrix(1 0 0 1 0 0)" id="21d4ff3a-425c-42de-933a-328ed5b1ecbb-path-0"  >
<path style="stroke: none; stroke-width: 0; stroke-dasharray: none; stroke-linecap: butt; stroke-dashoffset: 0; stroke-linejoin: miter; stroke-miterlimit: 4; fill: rgb(248,199,112); fill-rule: nonzero; opacity: 1;"  paint-order="stroke"  transform=" translate(-6.665, 6.755)" d="M 12.37 -13.51 L 12.37 0 L 8.9 0 L 4.43 -7.81 L 4.43 0 L 0.96 0 L 0.96 -13.51 L 4.43 -13.51 L 8.9 -5.7 L 8.9 -13.51 L 12.37 -13.51 Z" stroke-linecap="round" />
</g>
</g>
</g>
<g transform="matrix(0.9914969144401173 0.13013019886147384 -0.13013019886147384 0.9914969144401173 304.6009393988727 425.3834186648969)" id="tagline-2909e390-c639-4628-8b8b-8c62c21938d9-logo-8"  >
<g style=""  paint-order="stroke"   >
		<g transform="matrix(1 0 0 1 0 0)" id="98484379-f1d6-49bb-aa98-7cf7fee7bfb3-path-0"  >
<path style="stroke: none; stroke-width: 0; stroke-dasharray: none; stroke-linecap: butt; stroke-dashoffset: 0; stroke-linejoin: miter; stroke-miterlimit: 4; fill: rgb(248,199,112); fill-rule: nonzero; opacity: 1;"  paint-order="stroke"  transform=" translate(0, 0)" d="" stroke-linecap="round" />
</g>
</g>
</g>
<g transform="matrix(1.9203370978308227 0.05601367053148305 -0.056013670531483054 1.920337097830823 631.2612436433126 818.8983229211418)" id="tagline-2909e390-c639-4628-8b8b-8c62c21938d9-logo-9"  >
<g style=""  paint-order="stroke"   >
		<g transform="matrix(1 0 0 1 0 0)" id="61ffd2f5-36ac-475d-bb09-19554da8fb2e-path-0"  >
<path style="stroke: none; stroke-width: 0; stroke-dasharray: none; stroke-linecap: butt; stroke-dashoffset: 0; stroke-linejoin: miter; stroke-miterlimit: 4; fill: rgb(248,199,112); fill-rule: nonzero; opacity: 1;"  paint-order="stroke"  transform=" translate(-5.665, 6.755)" d="M 10.34 -2.8 L 10.34 0 L 3.21 0 L 3.21 -2.8 L 10.34 -2.8 Z M 4.44 -13.51 L 4.44 0 L 0.96 0 L 0.96 -13.51 L 4.44 -13.51 Z M 9.43 -8.28 L 9.43 -5.58 L 3.21 -5.58 L 3.21 -8.28 L 9.43 -8.28 Z M 10.37 -13.51 L 10.37 -10.7 L 3.21 -10.7 L 3.21 -13.51 L 10.37 -13.51 Z" stroke-linecap="round" />
</g>
</g>
</g>
<g transform="matrix(1.9115297071882966 -0.19205800980000837 0.1920580098000084 1.9115297071882968 672.2486714478489 817.3979153046813)" id="tagline-2909e390-c639-4628-8b8b-8c62c21938d9-logo-10"  >
<g style=""  paint-order="stroke"   >
		<g transform="matrix(1 0 0 1 0 0)" id="24fd09e9-2d0b-4051-be39-fa675975879b-path-0"  >
<path style="stroke: none; stroke-width: 0; stroke-dasharray: none; stroke-linecap: butt; stroke-dashoffset: 0; stroke-linejoin: miter; stroke-miterlimit: 4; fill: rgb(248,199,112); fill-rule: nonzero; opacity: 1;"  paint-order="stroke"  transform=" translate(-6.335000000000001, 6.755)" d="M 6.15 -3.48 L 8.83 -13.51 L 12.73 -13.51 L 8.22 0 L 5.71 0 L 6.15 -3.48 Z M 3.81 -13.51 L 6.48 -3.48 L 6.95 0 L 4.42 0 L -0.06 -13.51 L 3.81 -13.51 Z" stroke-linecap="round" />
</g>
</g>
</g>
<g transform="matrix(1.8721150431816467 -0.4312973054456725 0.4312973054456725 1.872115043181647 713.0917610922852 810.6220647524314)" id="tagline-2909e390-c639-4628-8b8b-8c62c21938d9-logo-11"  >
<g style=""  paint-order="stroke"   >
		<g transform="matrix(1 0 0 1 0 0)" id="032c2efe-3781-40f9-afb3-c4ff57a96baa-path-0"  >
<path style="stroke: none; stroke-width: 0; stroke-dasharray: none; stroke-linecap: butt; stroke-dashoffset: 0; stroke-linejoin: miter; stroke-miterlimit: 4; fill: rgb(248,199,112); fill-rule: nonzero; opacity: 1;"  paint-order="stroke"  transform=" translate(-5.665, 6.755)" d="M 10.34 -2.8 L 10.34 0 L 3.21 0 L 3.21 -2.8 L 10.34 -2.8 Z M 4.44 -13.51 L 4.44 0 L 0.96 0 L 0.96 -13.51 L 4.44 -13.51 Z M 9.43 -8.28 L 9.43 -5.58 L 3.21 -5.58 L 3.21 -8.28 L 9.43 -8.28 Z M 10.37 -13.51 L 10.37 -10.7 L 3.21 -10.7 L 3.21 -13.51 L 10.37 -13.51 Z" stroke-linecap="round" />
</g>
</g>
</g>
<g transform="matrix(1.8033789033791914 -0.6623115818393799 0.66231158183938 1.8033789033791916 751.6946558795445 799.0568474766344)" id="tagline-2909e390-c639-4628-8b8b-8c62c21938d9-logo-12"  >
<g style=""  paint-order="stroke"   >
		<g transform="matrix(1 0 0 1 0 0)" id="b395a48f-fecb-4bda-89a7-b0f0032e2d2b-path-0"  >
<path style="stroke: none; stroke-width: 0; stroke-dasharray: none; stroke-linecap: butt; stroke-dashoffset: 0; stroke-linejoin: miter; stroke-miterlimit: 4; fill: rgb(248,199,112); fill-rule: nonzero; opacity: 1;"  paint-order="stroke"  transform=" translate(-6.47, 6.755)" d="M 0.96 -13.51 L 6.36 -13.51 Q 7.95 -13.51 9.11 -13.04 Q 10.27 -12.57 10.9 -11.66 Q 11.53 -10.75 11.53 -9.41 L 11.53 -9.41 Q 11.53 -8.2 11.17 -7.42 Q 10.82 -6.63 10.18 -6.14 Q 9.55 -5.64 8.69 -5.29 L 8.69 -5.29 L 7.55 -4.59 L 3.15 -4.59 L 3.13 -7.4 L 6.33 -7.4 Q 6.9 -7.4 7.29 -7.59 Q 7.67 -7.77 7.86 -8.14 Q 8.05 -8.51 8.05 -9.05 L 8.05 -9.05 Q 8.05 -9.82 7.63 -10.26 Q 7.2 -10.7 6.36 -10.7 L 6.36 -10.7 L 4.44 -10.7 L 4.44 0 L 0.96 0 L 0.96 -13.51 Z M 8.25 0 L 5.32 -5.95 L 9.01 -5.97 L 11.98 -0.15 L 11.98 0 L 8.25 0 Z" stroke-linecap="round" />
</g>
</g>
</g>
<g transform="matrix(1.7074511143965907 -0.8805922964332333 0.8805922964332334 1.707451114396591 787.8800016848262 783.1161427825593)" id="tagline-2909e390-c639-4628-8b8b-8c62c21938d9-logo-13"  >
<g style=""  paint-order="stroke"   >
		<g transform="matrix(1 0 0 1 0 0)" id="2f66b3c3-bf56-4e88-9064-2303df615964-path-0"  >
<path style="stroke: none; stroke-width: 0; stroke-dasharray: none; stroke-linecap: butt; stroke-dashoffset: 0; stroke-linejoin: miter; stroke-miterlimit: 4; fill: rgb(248,199,112); fill-rule: nonzero; opacity: 1;"  paint-order="stroke"  transform=" translate(-5.995000000000001, 6.755)" d="M 3.68 -13.51 L 5.99 -7.92 L 8.3 -13.51 L 12.05 -13.51 L 7.77 -4.81 L 7.77 0 L 4.23 0 L 4.23 -4.81 L -0.06 -13.51 L 3.68 -13.51 Z" stroke-linecap="round" />
</g>
</g>
</g>
<g transform="matrix(0.8354445464641751 -0.5495747535897813 0.5495747535897813 0.8354445464641751 422.98197205411583 396.50368226418885)" id="tagline-2909e390-c639-4628-8b8b-8c62c21938d9-logo-14"  >
<g style=""  paint-order="stroke"   >
		<g transform="matrix(1 0 0 1 0 0)" id="a287e3b6-e05b-4822-abe3-fa01350cf139-path-0"  >
<path style="stroke: none; stroke-width: 0; stroke-dasharray: none; stroke-linecap: butt; stroke-dashoffset: 0; stroke-linejoin: miter; stroke-miterlimit: 4; fill: rgb(248,199,112); fill-rule: nonzero; opacity: 1;"  paint-order="stroke"  transform=" translate(0, 0)" d="" stroke-linecap="round" />
</g>
</g>
</g>
<g transform="matrix(1.4828345447066036 -1.2214883600004036 1.2214883600004036 1.4828345447066036 845.3158511132309 745.2385126475139)" id="tagline-2909e390-c639-4628-8b8b-8c62c21938d9-logo-15"  >
<g style=""  paint-order="stroke"   >
		<g transform="matrix(1 0 0 1 0 8.8818e-16)" id="e8079dcc-5116-4edc-a1ff-ebc105d30a9f-path-0"  >
<path style="stroke: none; stroke-width: 0; stroke-dasharray: none; stroke-linecap: butt; stroke-dashoffset: 0; stroke-linejoin: miter; stroke-miterlimit: 4; fill: rgb(248,199,112); fill-rule: nonzero; opacity: 1;"  paint-order="stroke"  transform=" translate(-6.3549999999999995, 6.755)" d="M 6.44 -4.4 L 3.15 -4.4 L 3.15 -7.21 L 6.44 -7.21 Q 7.07 -7.21 7.46 -7.41 Q 7.85 -7.62 8.03 -7.97 Q 8.22 -8.33 8.22 -8.79 L 8.22 -8.79 Q 8.22 -9.3 8.03 -9.73 Q 7.85 -10.17 7.46 -10.43 Q 7.07 -10.7 6.44 -10.7 L 6.44 -10.7 L 4.44 -10.7 L 4.44 0 L 0.96 0 L 0.96 -13.51 L 6.44 -13.51 Q 8.08 -13.51 9.27 -12.9 Q 10.46 -12.28 11.11 -11.23 Q 11.75 -10.17 11.75 -8.81 L 11.75 -8.81 Q 11.75 -7.5 11.11 -6.5 Q 10.46 -5.51 9.27 -4.95 Q 8.08 -4.4 6.44 -4.4 L 6.44 -4.4 Z" stroke-linecap="round" />
</g>
</g>
</g>
<g transform="matrix(1.3205306591698793 -1.395360483453677 1.395360483453677 1.3205306591698796 874.3276661823538 718.1324923135018)" id="tagline-2909e390-c639-4628-8b8b-8c62c21938d9-logo-16"  >
<g style=""  paint-order="stroke"   >
		<g transform="matrix(1 0 0 1 0 0)" id="da775db3-546a-4906-90cd-1f5dd065c3b3-path-0"  >
<path style="stroke: none; stroke-width: 0; stroke-dasharray: none; stroke-linecap: butt; stroke-dashoffset: 0; stroke-linejoin: miter; stroke-miterlimit: 4; fill: rgb(248,199,112); fill-rule: nonzero; opacity: 1;"  paint-order="stroke"  transform=" translate(-6.540000000000001, 6.755)" d="M 6.84 -10.25 L 3.67 0 L -0.06 0 L 4.89 -13.51 L 7.25 -13.51 L 6.84 -10.25 Z M 9.4 0 L 6.23 -10.25 L 5.77 -13.51 L 8.15 -13.51 L 13.14 0 L 9.4 0 Z M 9.36 -5.07 L 9.36 -2.26 L 2.43 -2.26 L 2.43 -5.07 L 9.36 -5.07 Z" stroke-linecap="round" />
</g>
</g>
</g>
<g transform="matrix(1.1204639946488155 -1.5605744254239637 1.5605744254239637 1.1204639946488157 901.9922379456218 684.6305144512219)" id="tagline-2909e390-c639-4628-8b8b-8c62c21938d9-logo-17"  >
<g style=""  paint-order="stroke"   >
		<g transform="matrix(1 0 0 1 0 0)" id="2bc6c9f8-9899-4287-aafd-3c8aa6183c5e-path-0"  >
<path style="stroke: none; stroke-width: 0; stroke-dasharray: none; stroke-linecap: butt; stroke-dashoffset: 0; stroke-linejoin: miter; stroke-miterlimit: 4; fill: rgb(248,199,112); fill-rule: nonzero; opacity: 1;"  paint-order="stroke"  transform=" translate(-6.420000000000001, 6.755)" d="M 12.14 -7.37 L 12.14 -1.67 Q 11.78 -1.28 11.06 -0.85 Q 10.34 -0.42 9.26 -0.12 Q 8.17 0.19 6.71 0.19 L 6.71 0.19 Q 4.89 0.19 3.54 -0.58 Q 2.19 -1.35 1.44 -2.82 Q 0.7 -4.3 0.7 -6.44 L 0.7 -6.44 L 0.7 -7.05 Q 0.7 -9.19 1.45 -10.68 Q 2.2 -12.16 3.52 -12.93 Q 4.83 -13.7 6.52 -13.7 L 6.52 -13.7 Q 8.42 -13.7 9.61 -13.1 Q 10.8 -12.51 11.4 -11.44 Q 12 -10.37 12.13 -8.98 L 12.13 -8.98 L 8.79 -8.98 Q 8.7 -9.63 8.46 -10.06 Q 8.22 -10.48 7.78 -10.7 Q 7.35 -10.91 6.64 -10.91 L 6.64 -10.91 Q 5.91 -10.91 5.37 -10.5 Q 4.82 -10.09 4.53 -9.24 Q 4.23 -8.4 4.23 -7.07 L 4.23 -7.07 L 4.23 -6.44 Q 4.23 -5.14 4.51 -4.29 Q 4.8 -3.44 5.4 -3.03 Q 6 -2.62 6.96 -2.62 L 6.96 -2.62 Q 7.43 -2.62 7.76 -2.69 Q 8.09 -2.76 8.31 -2.86 Q 8.54 -2.96 8.66 -3.06 L 8.66 -3.06 L 8.66 -4.9 L 6.55 -4.9 L 6.55 -7.37 L 12.14 -7.37 Z" stroke-linecap="round" />
</g>
</g>
</g>
<g transform="matrix(0.9131985701757966 -1.6902368094502607 1.6902368094502607 0.9131985701757966 924.1824594000404 649.1055153016714)" id="tagline-2909e390-c639-4628-8b8b-8c62c21938d9-logo-18"  >
<g style=""  paint-order="stroke"   >
		<g transform="matrix(1 0 0 1 0 0)" id="34fd4d4e-67f4-4d23-a44c-015f2019b0ec-path-0"  >
<path style="stroke: none; stroke-width: 0; stroke-dasharray: none; stroke-linecap: butt; stroke-dashoffset: 0; stroke-linejoin: miter; stroke-miterlimit: 4; fill: rgb(248,199,112); fill-rule: nonzero; opacity: 1;"  paint-order="stroke"  transform=" translate(-5.665, 6.755)" d="M 10.34 -2.8 L 10.34 0 L 3.21 0 L 3.21 -2.8 L 10.34 -2.8 Z M 4.44 -13.51 L 4.44 0 L 0.96 0 L 0.96 -13.51 L 4.44 -13.51 Z M 9.43 -8.28 L 9.43 -5.58 L 3.21 -5.58 L 3.21 -8.28 L 9.43 -8.28 Z M 10.37 -13.51 L 10.37 -10.7 L 3.21 -10.7 L 3.21 -13.51 L 10.37 -13.51 Z" stroke-linecap="round" />
</g>
</g>
</g>
</svg>